<?xml version="1.0" encoding="UTF-8"?>
<!DOCTYPE svg PUBLIC "-//W3C//DTD SVG 1.1//EN" "http://www.w3.org/Graphics/SVG/1.1/DTD/svg11.dtd">
<!-- Creator: CorelDRAW -->
<svg xmlns="http://www.w3.org/2000/svg" xml:space="preserve" width="67.7334mm" height="67.7334mm" version="1.1" style="shape-rendering:geometricPrecision; text-rendering:geometricPrecision; image-rendering:optimizeQuality; fill-rule:evenodd; clip-rule:evenodd"
viewBox="0 0 15798.58 15798.58"
 xmlns:xlink="http://www.w3.org/1999/xlink"
 xmlns:xodm="http://www.corel.com/coreldraw/odm/2003">
 <defs>
  <style type="text/css">
   <![CDATA[
    .fil0 {fill:#007FFF;fill-rule:nonzero}
    .fil1 {fill:white;fill-rule:nonzero}
   ]]>
  </style>
 </defs>
 <g id="圖層_x0020_1">
  <metadata id="CorelCorpID_0Corel-Layer"/>
  <g id="_105553248930880">
   <path class="fil0" d="M3702.79 0l8393 0c2044.64,0 3702.79,1658.15 3702.79,3702.79l0 8393c0,2044.62 -1658.15,3702.77 -3702.79,3702.77l-8393 0.02c-2044.62,-0.02 -3702.77,-1658.17 -3702.77,-3702.81l-0.02 -8392.98c0.02,-2044.64 1658.17,-3702.79 3702.81,-3702.79z"/>
   <path class="fil1" d="M8269.64 2036.55c2168.77,0 4062.39,1177.87 5076.59,2928.67l-9.89 -16.86 -2551.76 1469.27c-502.72,-851.23 -1424.41,-1425.67 -2481.67,-1437.52l-33.26 -0.16c-1612.32,0 -2919.43,1307.04 -2919.43,2919.29 0,527.28 140.55,1021.55 385.02,1448.41 503.23,878.5 1449.18,1471.06 2534.41,1471.06 1091.83,0 2043.19,-600.1 2543.88,-1487.97l-12.18 21.3 2547.89 1476.05c-1003.08,1735.98 -2870.71,2910.22 -5014.31,2933.59l-65.29 0.37c-2175.7,0 -4074.65,-1185.13 -5086.34,-2945.2 -493.9,-859.23 -776.48,-1855.34 -776.48,-2917.61 0,-3237.81 2624.79,-5862.68 5862.82,-5862.68z"/>
  </g>
 </g>
</svg>
