<?xml version="1.0" encoding="UTF-8"?>
<!DOCTYPE svg PUBLIC "-//W3C//DTD SVG 1.1//EN" "http://www.w3.org/Graphics/SVG/1.1/DTD/svg11.dtd">
<!-- Creator: CorelDRAW -->
<svg xmlns="http://www.w3.org/2000/svg" xml:space="preserve" width="67.7334mm" height="67.7334mm" version="1.1" style="shape-rendering:geometricPrecision; text-rendering:geometricPrecision; image-rendering:optimizeQuality; fill-rule:evenodd; clip-rule:evenodd"
viewBox="0 0 2160.91 2160.91"
 xmlns:xlink="http://www.w3.org/1999/xlink"
 xmlns:xodm="http://www.corel.com/coreldraw/odm/2003">
 <defs>
  <style type="text/css">
   <![CDATA[
    .fil0 {fill:#007FFF;fill-rule:nonzero}
    .fil1 {fill:white;fill-rule:nonzero}
   ]]>
  </style>
 </defs>
 <g id="圖層_x0020_1">
  <metadata id="CorelCorpID_0Corel-Layer"/>
  <g id="_105553249320960">
   <path class="fil0" d="M506.46 0l1147.99 0c279.66,0 506.46,226.8 506.46,506.46l0 1147.99c0,279.66 -226.8,506.46 -506.46,506.46l-1147.99 0c-279.66,-0 -506.46,-226.8 -506.46,-506.47l-0 -1147.98c0,-279.66 226.8,-506.46 506.47,-506.46z"/>
   <path class="fil1" d="M934.92 1776.99c-385.2,0 -698.57,-313.37 -698.57,-698.57 0,-385.2 313.38,-698.57 698.57,-698.57 248.55,0 480.36,133.75 604.96,349.07l-302.32 174.95c-62.35,-107.78 -178.33,-174.73 -302.63,-174.73 -192.6,0 -349.29,156.69 -349.29,349.29 0,192.59 156.69,349.28 349.29,349.28 124.31,0 240.28,-66.95 302.65,-174.75l302.32 174.94c-124.59,215.33 -356.41,349.09 -604.97,349.09z"/>
   <polygon class="fil1" points="1633.49,1039.61 1555.87,1039.61 1555.87,961.99 1478.26,961.99 1478.26,1039.61 1400.63,1039.61 1400.63,1117.23 1478.26,1117.23 1478.26,1194.85 1555.87,1194.85 1555.87,1117.23 1633.49,1117.23 "/>
   <polygon class="fil1" points="1924.56,1039.61 1846.94,1039.61 1846.94,961.99 1769.33,961.99 1769.33,1039.61 1691.71,1039.61 1691.71,1117.23 1769.33,1117.23 1769.33,1194.85 1846.94,1194.85 1846.94,1117.23 1924.56,1117.23 "/>
  </g>
 </g>
</svg>
