<?xml version="1.0" encoding="UTF-8"?>
<!DOCTYPE svg PUBLIC "-//W3C//DTD SVG 1.1//EN" "http://www.w3.org/Graphics/SVG/1.1/DTD/svg11.dtd">
<!-- Creator: CorelDRAW -->
<svg xmlns="http://www.w3.org/2000/svg" xml:space="preserve" width="67.7334mm" height="67.7334mm" version="1.1" style="shape-rendering:geometricPrecision; text-rendering:geometricPrecision; image-rendering:optimizeQuality; fill-rule:evenodd; clip-rule:evenodd"
viewBox="0 0 1854.07 1854.07"
 xmlns:xlink="http://www.w3.org/1999/xlink"
 xmlns:xodm="http://www.corel.com/coreldraw/odm/2003">
 <defs>
  <style type="text/css">
   <![CDATA[
    .fil0 {fill:#007FFF;fill-rule:nonzero}
    .fil1 {fill:white;fill-rule:nonzero}
   ]]>
  </style>
 </defs>
 <g id="圖層_x0020_1">
  <metadata id="CorelCorpID_0Corel-Layer"/>
  <g id="_105553249272000">
   <path class="fil0" d="M434.55 0l984.98 0c239.95,0 434.55,194.6 434.55,434.55l0 984.98c0,239.95 -194.6,434.55 -434.55,434.55l-984.98 0c-239.95,-0 -434.55,-194.6 -434.55,-434.55l-0 -984.97c0,-239.95 194.6,-434.55 434.55,-434.55z"/>
   <path class="fil1" d="M1022.54 884.47l150.04 0 0 -135.75 -150.04 0 0 135.75zm-178.62 0l150.03 0 0 -135.75 -150.03 0 0 135.75zm-175.05 0l150.04 0 0 -135.75 -150.04 0 0 135.75zm-175.05 0l146.47 0 0 -135.75 -146.47 0 0 135.75zm-178.62 0l150.04 0 0 -135.75 -150.04 0 0 135.75zm178.62 -164.33l146.47 0 0 -135.75 -146.47 0 0 135.75zm175.05 0l150.04 0 0 -135.75 -150.04 0 0 135.75zm175.05 0l150.03 0 0 -135.75 -150.03 0 0 135.75zm0 -164.33l150.03 0 0 -135.75 -150.03 0 0 135.75zm807.35 267.93c0,0 -64.3,-60.74 -196.48,-39.3 -14.29,-103.6 -125.03,-164.33 -125.03,-164.33 0,0 -103.6,125.03 -28.58,264.36 -21.43,10.72 -57.16,25.01 -110.74,25.01l-982.4 0c-17.86,67.88 -17.86,517.99 475.13,517.99 353.66,0 618.02,-164.32 743.05,-464.41 185.76,14.3 225.06,-139.32 225.06,-139.32z"/>
  </g>
 </g>
</svg>
