<?xml version="1.0" encoding="UTF-8"?>
<!DOCTYPE svg PUBLIC "-//W3C//DTD SVG 1.1//EN" "http://www.w3.org/Graphics/SVG/1.1/DTD/svg11.dtd">
<!-- Creator: CorelDRAW -->
<svg xmlns="http://www.w3.org/2000/svg" xml:space="preserve" width="67.7334mm" height="67.7334mm" version="1.1" style="shape-rendering:geometricPrecision; text-rendering:geometricPrecision; image-rendering:optimizeQuality; fill-rule:evenodd; clip-rule:evenodd"
viewBox="0 0 878.3 878.3"
 xmlns:xlink="http://www.w3.org/1999/xlink"
 xmlns:xodm="http://www.corel.com/coreldraw/odm/2003">
 <defs>
  <style type="text/css">
   <![CDATA[
    .fil2 {fill:none;fill-rule:nonzero}
    .fil0 {fill:#F05138;fill-rule:nonzero}
    .fil1 {fill:white;fill-rule:nonzero}
   ]]>
  </style>
    <clipPath id="id0" style="clip-rule:nonzero">
     <path d="M96.07 782.24l686.17 0 0 -686.17 -686.17 0 0 686.17z"/>
    </clipPath>
 </defs>
 <g id="圖層_x0020_1">
  <metadata id="CorelCorpID_0Corel-Layer"/>
  <g id="_105553248774336">
   <path class="fil0" d="M205.85 0l466.6 0c113.67,0 205.85,92.18 205.85,205.85l0 466.6c0,113.67 -92.18,205.85 -205.85,205.85l-466.6 0c-113.67,-0 -205.85,-92.18 -205.85,-205.85l-0 -466.6c0,-113.67 92.18,-205.85 205.85,-205.85z"/>
   <polygon class="fil0" points="96.07,782.24 782.24,782.24 782.24,96.07 96.07,96.07 "/>
   <g style="clip-path:url(#id0)">
    <g>
     <g>
      <path id="_1" class="fil1" d="M769.29 408.6l-299.58 -299.58c-4.1,-4.11 -8.97,-7.36 -14.33,-9.58 -5.36,-2.22 -11.11,-3.36 -16.91,-3.36 -5.8,0 -11.55,1.14 -16.91,3.36 -5.36,2.22 -10.23,5.48 -14.33,9.58l-62.18 62.18 78.91 78.91c18.36,-6.43 39.37,-2.04 53.99,12.59 6.96,6.97 11.82,15.77 14.03,25.37 2.2,9.6 1.66,19.63 -1.57,28.95l76.06 76.06c18.4,-6.35 39.63,-2.25 54.31,12.48 4.89,4.88 8.76,10.68 11.4,17.06 2.64,6.38 4,13.22 4,20.13 -0,6.91 -1.36,13.74 -4.01,20.12 -2.65,6.38 -6.52,12.18 -11.4,17.06 -4.88,4.89 -10.68,8.76 -17.06,11.4 -6.38,2.64 -13.22,4 -20.13,4 -6.91,0 -13.75,-1.36 -20.12,-4 -6.38,-2.65 -12.18,-6.52 -17.06,-11.4 -15.44,-15.44 -19.25,-38.17 -11.45,-57.19l-70.93 -70.93 0 186.66c5.15,2.55 9.85,5.91 13.94,9.95 4.88,4.88 8.76,10.68 11.4,17.06 2.64,6.38 4,13.22 4,20.12 0,6.91 -1.36,13.74 -4,20.12 -2.65,6.38 -6.52,12.18 -11.4,17.06 -4.88,4.88 -10.68,8.76 -17.06,11.4 -6.38,2.64 -13.22,4 -20.12,4 -6.91,0 -13.74,-1.36 -20.12,-4 -6.38,-2.64 -12.18,-6.52 -17.06,-11.4 -4.89,-4.88 -8.77,-10.68 -11.41,-17.05 -2.65,-6.38 -4.01,-13.22 -4.01,-20.13 0,-6.91 1.36,-13.74 4.01,-20.13 2.65,-6.38 6.52,-12.18 11.41,-17.05 5.08,-5.06 10.72,-8.9 17.22,-11.47l0 -188.4c-6.26,-2.57 -12.14,-6.37 -17.22,-11.47 -7.38,-7.37 -12.4,-16.78 -14.42,-27.02 -2.01,-10.24 -0.94,-20.85 3.1,-30.47l-77.84 -77.8 -205.42 205.21c-4.11,4.1 -7.37,8.98 -9.59,14.34 -2.22,5.36 -3.37,11.11 -3.37,16.91 0,5.81 1.14,11.55 3.37,16.92 2.22,5.36 5.48,10.23 9.59,14.34l299.6 299.56c4.1,4.1 8.97,7.36 14.33,9.58 5.36,2.22 11.11,3.36 16.91,3.36 5.8,0 11.55,-1.14 16.91,-3.36 5.36,-2.22 10.23,-5.48 14.33,-9.58l298.21 -297.73c4.11,-4.1 7.37,-8.98 9.59,-14.34 2.22,-5.36 3.37,-11.11 3.37,-16.91 0,-5.81 -1.14,-11.55 -3.37,-16.92 -2.22,-5.36 -5.48,-10.23 -9.59,-14.34l0 -0.21zm0 0l0 0 0 0z"/>
     </g>
    </g>
   </g>
   <polygon class="fil2" points="96.07,782.24 782.24,782.24 782.24,96.07 96.07,96.07 "/>
  </g>
 </g>
</svg>
