<?xml version="1.0" encoding="UTF-8"?>
<!DOCTYPE svg PUBLIC "-//W3C//DTD SVG 1.1//EN" "http://www.w3.org/Graphics/SVG/1.1/DTD/svg11.dtd">
<!-- Creator: CorelDRAW -->
<svg xmlns="http://www.w3.org/2000/svg" xml:space="preserve" width="67.7334mm" height="67.7334mm" version="1.1" style="shape-rendering:geometricPrecision; text-rendering:geometricPrecision; image-rendering:optimizeQuality; fill-rule:evenodd; clip-rule:evenodd"
viewBox="0 0 1954.8 1954.8"
 xmlns:xlink="http://www.w3.org/1999/xlink"
 xmlns:xodm="http://www.corel.com/coreldraw/odm/2003">
 <defs>
  <style type="text/css">
   <![CDATA[
    .fil0 {fill:#242938;fill-rule:nonzero}
    .fil1 {fill:white;fill-rule:nonzero}
   ]]>
  </style>
 </defs>
 <g id="圖層_x0020_1">
  <metadata id="CorelCorpID_0Corel-Layer"/>
  <g id="_105553173054432">
   <path class="fil0" d="M458.16 0l1038.49 0c252.99,0 458.16,205.17 458.16,458.16l0 1038.49c0,252.99 -205.17,458.15 -458.16,458.15l-1038.49 0c-252.99,-0 -458.15,-205.17 -458.15,-458.16l-0 -1038.49c0,-252.99 205.17,-458.16 458.16,-458.16z"/>
   <path class="fil1" d="M309.26 864.65c-3.06,0 -3.82,-1.53 -2.29,-3.82l16.03 -20.62c1.53,-2.29 5.34,-3.82 8.4,-3.82l272.61 0c3.05,0 3.82,2.29 2.29,4.58l-12.98 19.85c-1.53,2.29 -5.35,4.58 -7.64,4.58l-276.42 -0.76z"/>
   <path class="fil1" d="M193.95 934.9c-3.05,0 -3.82,-1.53 -2.29,-3.82l16.03 -20.61c1.53,-2.29 5.34,-3.82 8.4,-3.82l348.2 0c3.06,0 4.58,2.29 3.82,4.58l-6.11 18.33c-0.76,3.06 -3.82,4.58 -6.87,4.58l-361.18 0.76z"/>
   <path class="fil1" d="M378.74 1005.15c-3.06,0 -3.82,-2.29 -2.29,-4.58l10.69 -19.09c1.53,-2.29 4.58,-4.58 7.64,-4.58l152.72 0c3.05,0 4.58,2.29 4.58,5.34l-1.53 18.33c0,3.06 -3.05,5.35 -5.34,5.35l-166.46 -0.76z"/>
   <path class="fil1" d="M1171.36 850.9c-48.11,12.22 -80.94,21.38 -128.28,33.6 -11.45,3.05 -12.22,3.82 -22.14,-7.64 -11.45,-12.98 -19.85,-21.38 -35.89,-29.02 -48.11,-23.67 -94.69,-16.8 -138.21,11.45 -51.92,33.6 -78.65,83.23 -77.89,145.08 0.76,61.09 42.76,111.49 103.08,119.89 51.93,6.87 95.45,-11.45 129.81,-50.4 6.87,-8.4 12.98,-17.56 20.61,-28.25 -27.49,0 -61.85,0 -147.37,0 -16.03,0 -19.85,-9.93 -14.51,-22.91 9.93,-23.67 28.25,-63.38 38.94,-83.23 2.29,-4.58 7.64,-12.22 19.09,-12.22 38.94,0 182.5,0 277.95,0 -1.53,20.62 -1.53,41.24 -4.58,61.85 -8.4,54.98 -29.02,105.37 -62.62,149.66 -54.98,72.54 -126.76,117.59 -217.62,129.81 -74.83,9.93 -144.32,-4.58 -205.41,-50.4 -56.51,-42.76 -88.58,-99.27 -96.98,-169.52 -9.93,-83.23 14.51,-158.06 64.9,-223.73 54.22,-71.01 126,-116.06 213.81,-132.1 71.78,-12.98 140.5,-4.58 202.35,37.42 40.47,26.72 69.49,63.37 88.58,107.66 4.58,6.87 1.53,10.69 -7.64,12.98z"/>
   <path class="fil1" d="M1424.1 1273.17c-69.49,-1.53 -132.86,-21.38 -186.32,-67.2 -45.05,-38.94 -73.31,-88.58 -82.47,-147.37 -13.75,-86.29 9.93,-162.64 61.85,-230.61 55.74,-73.31 122.94,-111.48 213.81,-127.52 77.89,-13.74 151.19,-6.11 217.62,38.94 60.32,41.23 97.74,96.97 107.67,170.28 12.98,103.09 -16.8,187.08 -87.81,258.86 -50.4,51.16 -112.25,83.23 -183.26,97.74 -20.62,3.82 -41.24,4.58 -61.09,6.87zm181.74 -308.49c-0.76,-9.93 -0.76,-17.56 -2.29,-25.2 -13.74,-75.6 -83.23,-118.36 -155.77,-101.56 -71.01,16.03 -116.83,61.09 -133.63,132.87 -13.74,59.56 15.27,119.88 70.25,144.32 42,18.33 83.99,16.03 124.47,-4.58 60.32,-31.3 93.16,-80.18 96.98,-145.85z"/>
  </g>
 </g>
</svg>
