<?xml version="1.0" encoding="UTF-8"?>
<!DOCTYPE svg PUBLIC "-//W3C//DTD SVG 1.1//EN" "http://www.w3.org/Graphics/SVG/1.1/DTD/svg11.dtd">
<!-- Creator: CorelDRAW -->
<svg xmlns="http://www.w3.org/2000/svg" xml:space="preserve" width="256px" height="256px" version="1.1" style="shape-rendering:geometricPrecision; text-rendering:geometricPrecision; image-rendering:optimizeQuality; fill-rule:evenodd; clip-rule:evenodd"
viewBox="0 0 43.99 43.99"
 xmlns:xlink="http://www.w3.org/1999/xlink"
 xmlns:xodm="http://www.corel.com/coreldraw/odm/2003">
 <defs>
  <style type="text/css">
   <![CDATA[
    .fil0 {fill:#242938;fill-rule:nonzero}
    .fil1 {fill:white;fill-rule:nonzero}
   ]]>
  </style>
 </defs>
 <g id="圖層_x0020_1">
  <metadata id="CorelCorpID_0Corel-Layer"/>
  <path class="fil0" d="M10.31 0l23.37 0c5.7,0 10.31,4.62 10.31,10.31l0 23.37c0,5.7 -4.61,10.31 -10.31,10.31l-23.37 0c-5.69,0 -10.31,-4.61 -10.31,-10.31l0 -23.37c0,-5.69 4.62,-10.31 10.31,-10.31z"/>
  <path class="fil1" d="M26.74 6.59c-0.76,0 -1.3,0.55 -1.73,1.18 -0.44,0.62 -0.83,1.42 -1.23,2.26 -0.81,1.69 -1.72,3.56 -2.75,4.39 -0.46,0.38 -1.11,0.59 -1.85,0.8 -0.74,0.21 -1.56,0.42 -2.28,0.97 -0.62,0.47 -1.21,1.23 -1.69,1.89 -0.42,0.58 -0.65,0.96 -0.72,1.08l-8.75 4.08c-0.21,0.1 -0.34,0.31 -0.34,0.54 0,0.17 0.08,0.34 0.22,0.45l6.52 5.34c0.1,0.08 0.24,0.13 0.37,0.13 0.05,0 0.09,0 0.14,-0.01 0,0 0.38,-0.09 0.85,-0.14 0.46,-0.04 1,0.02 1.1,0.08 1.06,0.59 2.27,2.44 3.11,4.14 0.84,1.71 1.36,3.23 1.36,3.23 0.08,0.25 0.3,0.41 0.56,0.41 0.13,0 0.26,-0.05 0.37,-0.13 0,0 3.95,-3.16 5.92,-4.74 1.08,-0.87 1.94,-2.05 2.82,-2.98 0.89,-0.94 1.74,-1.59 2.77,-1.64 1.07,-0.04 2.66,1.01 3.89,2.17 1.23,1.16 2.13,2.34 2.13,2.34 0.11,0.15 0.28,0.23 0.47,0.23 0.33,0 0.59,-0.26 0.59,-0.59 0,-0.08 -0.02,-0.17 -0.05,-0.25 0,0 -2.39,-5.13 -3.56,-7.7 -1.27,-2.79 -2.61,-7.09 -3.92,-10.69 -0.65,-1.8 -1.3,-3.43 -1.96,-4.65 -0.33,-0.61 -0.66,-1.12 -1.03,-1.5 -0.36,-0.39 -0.8,-0.69 -1.33,-0.69l0 0zm0 1.18c0.06,0 0.23,0.06 0.47,0.32 0.25,0.26 0.55,0.7 0.85,1.25 0.6,1.12 1.24,2.71 1.89,4.49 1.3,3.56 2.63,7.86 3.96,10.78 0.66,1.47 1.23,2.69 2.02,4.39 -1.27,-1.16 -2.82,-2.33 -4.48,-2.26 -1.49,0.06 -2.62,0.99 -3.57,2 -0.96,1.01 -1.8,2.15 -2.7,2.87 -1.77,1.42 -4.64,3.71 -5.31,4.25 -0.18,-0.5 -0.42,-1.23 -1.1,-2.61 -0.87,-1.78 -2.03,-3.78 -3.6,-4.66 -0.59,-0.33 -1.24,-0.27 -1.79,-0.22 -0.38,0.04 -0.52,0.08 -0.69,0.11l-5.59 -4.57 8.04 -3.75c0.1,-0.04 0.19,-0.12 0.25,-0.22 0,0 0.33,-0.53 0.78,-1.16 0.46,-0.63 1.06,-1.35 1.44,-1.65 0.48,-0.36 1.15,-0.56 1.89,-0.77 0.75,-0.21 1.58,-0.44 2.28,-1.02 1.39,-1.13 2.26,-3.12 3.07,-4.79 0.4,-0.84 0.78,-1.6 1.13,-2.11 0.36,-0.5 0.63,-0.67 0.76,-0.67l0 0z"/>
  <polygon class="fil1" points="15.27,19.18 14.5,20.08 18.65,23.63 19.42,22.73 "/>
  <path class="fil1" d="M26.17 7.01c0,0 -0.93,3.11 -2.34,6.65 -1.42,3.54 -3.4,7.51 -5.19,9.08 -1.03,0.9 -2.21,2.39 -3.17,3.68 -0.95,1.28 -1.67,2.36 -1.67,2.36l0.99 0.66c0,0 0.7,-1.06 1.63,-2.32 0.94,-1.26 2.13,-2.73 3,-3.49 2.19,-1.91 4.07,-5.93 5.51,-9.53 1.44,-3.6 2.38,-6.75 2.38,-6.75l-1.14 -0.34z"/>
 </g>
</svg>
