<?xml version="1.0" encoding="UTF-8"?>
<!DOCTYPE svg PUBLIC "-//W3C//DTD SVG 1.1//EN" "http://www.w3.org/Graphics/SVG/1.1/DTD/svg11.dtd">
<!-- Creator: CorelDRAW -->
<svg xmlns="http://www.w3.org/2000/svg" xml:space="preserve" width="256px" height="256px" version="1.1" style="shape-rendering:geometricPrecision; text-rendering:geometricPrecision; image-rendering:optimizeQuality; fill-rule:evenodd; clip-rule:evenodd"
viewBox="0 0 22.83 22.83"
 xmlns:xlink="http://www.w3.org/1999/xlink"
 xmlns:xodm="http://www.corel.com/coreldraw/odm/2003">
 <defs>
  <style type="text/css">
   <![CDATA[
    .fil0 {fill:#242938;fill-rule:nonzero}
    .fil1 {fill:white;fill-rule:nonzero}
   ]]>
  </style>
 </defs>
 <g id="圖層_x0020_1">
  <metadata id="CorelCorpID_0Corel-Layer"/>
  <path class="fil0" d="M5.35 0l12.13 0c2.95,0 5.35,2.4 5.35,5.35l0 12.13c0,2.95 -2.4,5.35 -5.35,5.35l-12.13 0c-2.95,0 -5.35,-2.4 -5.35,-5.35l0 -12.13c0,-2.95 2.4,-5.35 5.35,-5.35z"/>
  <path class="fil1" d="M13.51 17.87c-0.37,0 -0.67,-0.29 -0.67,-0.66 0,-0.37 0.3,-0.67 0.67,-0.67 0.36,0 0.66,0.3 0.66,0.67 0,0.37 -0.3,0.66 -0.66,0.66zm-2.04 1.17c3.87,0 3.63,-1.68 3.63,-1.68l-0.01 -1.74 -3.69 0 0 -0.52 5.16 0c0,0 2.48,0.28 2.48,-3.62 0,-3.91 -2.16,-3.77 -2.16,-3.77l-1.29 0 0 1.81c0,0 0.07,2.16 -2.13,2.16l-3.66 0c0,0 -2.06,-0.03 -2.06,1.99l0 3.35c0,0 -0.32,2.02 3.73,2.02zm-2.15 -14c0.37,0 0.67,0.3 0.67,0.67 0,0.36 -0.3,0.66 -0.67,0.66 -0.36,0 -0.66,-0.3 -0.66,-0.66 0,-0.37 0.3,-0.67 0.66,-0.67zm2.04 -1.17c-3.87,0 -3.63,1.68 -3.63,1.68l0 1.74 3.7 0 0 0.52 -5.16 0c0,0 -2.48,-0.28 -2.48,3.63 0,3.9 2.16,3.77 2.16,3.77l1.29 0 0 -1.82c0,0 -0.07,-2.16 2.13,-2.16l3.66 0c0,0 2.06,0.03 2.06,-1.99l0 -3.34c0,0 0.32,-2.03 -3.73,-2.03z"/>
 </g>
</svg>
