<?xml version="1.0" encoding="UTF-8"?>
<!DOCTYPE svg PUBLIC "-//W3C//DTD SVG 1.1//EN" "http://www.w3.org/Graphics/SVG/1.1/DTD/svg11.dtd">
<!-- Creator: CorelDRAW -->
<svg xmlns="http://www.w3.org/2000/svg" xml:space="preserve" width="256px" height="256px" version="1.1" style="shape-rendering:geometricPrecision; text-rendering:geometricPrecision; image-rendering:optimizeQuality; fill-rule:evenodd; clip-rule:evenodd"
viewBox="0 0 24.04 24.04"
 xmlns:xlink="http://www.w3.org/1999/xlink"
 xmlns:xodm="http://www.corel.com/coreldraw/odm/2003">
 <defs>
  <style type="text/css">
   <![CDATA[
    .fil0 {fill:#242938;fill-rule:nonzero}
    .fil1 {fill:white;fill-rule:nonzero}
   ]]>
  </style>
 </defs>
 <g id="圖層_x0020_1">
  <metadata id="CorelCorpID_0Corel-Layer"/>
  <g id="_105553316796000">
   <path class="fil0" d="M5.64 0l12.77 0c3.11,0 5.63,2.52 5.63,5.64l0 12.77c0,3.11 -2.52,5.63 -5.63,5.63l-12.77 0c-3.12,0 -5.64,-2.52 -5.64,-5.63l0 -12.77c0,-3.12 2.52,-5.64 5.64,-5.64z"/>
   <path class="fil1" d="M12.67 7.11l0.14 -0.35 0.53 -0.05c0.29,-0.03 0.63,-0.07 0.74,-0.1 0.19,-0.04 0.17,-0.06 -0.33,-0.24 -0.3,-0.11 -0.54,-0.23 -0.54,-0.28 0,-0.04 0.06,-0.21 0.14,-0.37 0.07,-0.17 0.11,-0.3 0.08,-0.3 -0.02,0 -0.28,0.08 -0.58,0.18l-0.54 0.18 -0.54 -0.22c-0.31,-0.12 -0.58,-0.21 -0.61,-0.21 -0.02,0 0.03,0.15 0.12,0.34l0.18 0.34 -0.54 0.19c-0.3,0.1 -0.57,0.21 -0.6,0.24 -0.03,0.03 0.22,0.08 0.56,0.11 1.05,0.08 1.03,0.07 1.29,0.53 0.13,0.23 0.27,0.4 0.3,0.39 0.04,-0.01 0.12,-0.18 0.2,-0.38zm-2.92 1.49c1.04,-0.36 1.08,-0.93 0.1,-1.31 -0.48,-0.18 -1.72,-0.25 -2.4,-0.13 -0.59,0.1 -1.14,0.37 -1.25,0.6 -0.15,0.35 0.33,0.74 1.14,0.92 0.53,0.12 1.95,0.07 2.41,-0.08l0 0zm7.55 -0.27c0.72,-0.29 1.28,-0.53 1.25,-0.56 -0.14,-0.08 -2.23,-0.9 -2.33,-0.9 -0.15,-0.02 -2.68,1 -2.63,1.05 0.06,0.06 2.22,0.91 2.32,0.92 0.05,0 0.67,-0.23 1.39,-0.51l0 0zm-4.33 1.45c0.33,-0.48 0.59,-0.89 0.57,-0.91 -0.03,-0.03 -1.44,0.17 -3.23,0.46l-0.77 0.13 0.28 0.11c0.3,0.13 2.51,1.07 2.53,1.08 0.01,0 0.29,-0.38 0.62,-0.87l0 0zm-1.44 3.82c-0.13,-0.03 -0.76,-0.27 -1.4,-0.54 -0.63,-0.27 -2.17,-0.92 -3.42,-1.44 -2.85,-1.19 -3.13,-1.31 -3.41,-1.55l-0.23 -0.19 0 -0.94c0,-0.52 0.04,-1.01 0.08,-1.08 0.1,-0.19 0.15,-0.21 3.17,-1.39 5.14,-2.01 5.41,-2.1 6.02,-2.1 0.59,0 0.76,0.06 4.26,1.43 1.69,0.66 3.3,1.29 3.57,1.39 0.8,0.3 0.8,0.3 0.8,1.45 0,0.98 0,0.98 -0.19,1.16 -0.25,0.24 -1.06,0.62 -3.9,1.84 -1.27,0.54 -2.74,1.19 -3.26,1.44 -0.53,0.25 -1.12,0.48 -1.32,0.52 -0.4,0.07 -0.41,0.07 -0.77,0l0 0zm-0.01 3.07c-0.14,-0.03 -0.43,-0.14 -0.66,-0.24 -0.23,-0.11 -1.83,-0.78 -3.57,-1.5 -3.34,-1.4 -3.81,-1.61 -4.06,-1.84 -0.15,-0.14 -0.16,-0.2 -0.16,-1.06l0 -0.9 0.16 0.14c0.26,0.24 0.9,0.53 3.96,1.8 1.6,0.67 3.17,1.33 3.48,1.47 1.14,0.5 1.51,0.47 3,-0.23 0.58,-0.27 2.08,-0.93 3.35,-1.48 2.78,-1.2 3.51,-1.54 3.76,-1.77l0.19 -0.18 0 0.9 0 0.89 -0.25 0.23c-0.3,0.26 -0.52,0.37 -3.87,1.82 -1.41,0.6 -2.9,1.26 -3.32,1.46 -0.73,0.34 -1.41,0.57 -1.64,0.56 -0.06,0 -0.23,-0.04 -0.37,-0.07l0 0zm-0.11 2.9c-0.2,-0.05 -0.46,-0.15 -0.58,-0.21 -0.11,-0.06 -1.64,-0.7 -3.39,-1.43 -3.38,-1.41 -3.96,-1.67 -4.21,-1.9 -0.15,-0.14 -0.16,-0.21 -0.16,-1.05l0 -0.91 0.23 0.2c0.28,0.23 0.53,0.35 3.79,1.7 1.46,0.61 3.02,1.27 3.46,1.46 1.31,0.57 1.54,0.56 3.07,-0.16 0.53,-0.24 1.99,-0.89 3.26,-1.43 2.92,-1.26 3.69,-1.63 3.91,-1.85l0.18 -0.18 0 0.91c0,0.9 0,0.91 -0.19,1.09 -0.26,0.24 -0.97,0.57 -4.04,1.9 -1.42,0.61 -2.92,1.27 -3.32,1.46 -0.64,0.31 -1.3,0.52 -1.56,0.51 -0.04,0 -0.25,-0.05 -0.45,-0.11z"/>
  </g>
 </g>
</svg>
