<?xml version="1.0" encoding="UTF-8"?>
<!DOCTYPE svg PUBLIC "-//W3C//DTD SVG 1.1//EN" "http://www.w3.org/Graphics/SVG/1.1/DTD/svg11.dtd">
<!-- Creator: CorelDRAW -->
<svg xmlns="http://www.w3.org/2000/svg" xml:space="preserve" width="67.7334mm" height="70.6438mm" version="1.1" style="shape-rendering:geometricPrecision; text-rendering:geometricPrecision; image-rendering:optimizeQuality; fill-rule:evenodd; clip-rule:evenodd"
viewBox="0 0 2981.96 3110.09"
 xmlns:xlink="http://www.w3.org/1999/xlink"
 xmlns:xodm="http://www.corel.com/coreldraw/odm/2003">
 <defs>
  <style type="text/css">
   <![CDATA[
    .fil1 {fill:white}
    .fil0 {fill:#009639;fill-rule:nonzero}
   ]]>
  </style>
 </defs>
 <g id="圖層_x0020_1">
  <metadata id="CorelCorpID_0Corel-Layer"/>
  <g id="_105553242856800">
   <path class="fil0" d="M698.9 69.89l1584.17 0c385.92,0 698.9,312.97 698.9,698.9l0 1584.17c0,385.92 -312.97,698.89 -698.9,698.89l-1584.17 0c-385.92,-0 -698.89,-312.98 -698.89,-698.9l-0 -1584.16c0,-385.92 312.98,-698.9 698.9,-698.9z"/>
   <path class="fil1" d="M2723.09 0l258.87 0 0 3110.09 -24.07 0c6.08,0 11.9,-2.41 16.21,-6.7 4.3,-4.28 6.71,-10.11 6.71,-16.17l0 -2624.37c1.83,-5.34 1.44,-11.18 -1.05,-16.24 -2.49,-5.06 -6.89,-8.92 -12.25,-10.74 -5.35,-1.82 -11.2,-1.45 -16.27,1.04 -5.08,2.49 -8.96,6.89 -10.78,12.22l-963.03 1078.47c-2.75,2.97 -6.09,5.34 -9.8,6.96 -3.7,1.62 -7.71,2.45 -11.76,2.45 -4.04,0 -8.05,-0.83 -11.76,-2.45 -3.71,-1.62 -7.04,-3.98 -9.79,-6.96l-491.6 -505.84c-4.17,-5.19 -6.44,-11.64 -6.44,-18.3 0,-6.65 2.27,-13.1 6.44,-18.29l162.33 -207.64c2.73,-3.78 6.3,-6.85 10.45,-8.98 4.15,-2.13 8.75,-3.23 13.41,-3.23 4.66,0 9.25,1.11 13.4,3.23 4.15,2.12 7.74,5.2 10.45,8.98l275.16 303.69c2.75,3.27 6.19,5.9 10.08,7.7 3.88,1.81 8.1,2.74 12.39,2.74 4.27,0 8.51,-0.93 12.39,-2.74 3.88,-1.81 7.32,-4.43 10.08,-7.7l766.76 -1048.28c2.14,-3.09 3.39,-6.71 3.66,-10.46 0.26,-3.75 -0.5,-7.5 -2.18,-10.86 -1.69,-3.36 -4.25,-6.21 -7.4,-8.25 -3.17,-2.04 -6.82,-3.2 -10.59,-3.36zm-2700.15 0l-22.93 0 0 22.87c0,-6.07 2.42,-11.88 6.72,-16.17 4.3,-4.29 10.13,-6.7 16.21,-6.7zm-22.93 3087.22l0 22.87 22.93 0c-6.08,0 -11.91,-2.41 -16.21,-6.7 -4.3,-4.28 -6.72,-10.11 -6.72,-16.17zm1968.19 -1118.2c-56.94,-1.73 -112.44,17.9 -155.5,54.99 -43.05,37.08 -70.48,88.89 -76.87,145.15 -0.28,1.09 -0.3,2.24 -0.07,3.33 0.23,1.11 0.72,2.14 1.43,3.02 0.71,0.87 1.61,1.57 2.65,2.05 1.02,0.47 2.15,0.7 3.28,0.66l451.05 0c1.04,0 2.07,-0.21 3.02,-0.63 0.96,-0.42 1.81,-1.03 2.49,-1.81 0.69,-0.77 1.21,-1.68 1.51,-2.67 0.3,-0.99 0.4,-2.03 0.27,-3.05 -4.44,-57.27 -31.42,-110.51 -75.08,-148.15 -43.67,-37.64 -100.51,-56.65 -158.19,-52.9zm-1663.68 616.93c144.92,126.99 333.79,192.63 526.46,182.95l-0.92 0c347.61,0 515.45,-177.46 515.45,-409.81 0,-291.41 -271.16,-356.32 -485.03,-407.53 -139.26,-33.35 -254.21,-60.86 -254.21,-141.31 0,-76.84 66.04,-128.98 183.43,-128.98 127.8,-1.19 252.14,41.43 352.19,120.75 2.96,2.53 6.4,4.41 10.13,5.56 3.72,1.14 7.63,1.51 11.5,1.08 3.87,-0.43 7.6,-1.64 10.99,-3.57 3.38,-1.92 6.31,-4.53 8.65,-7.64l112.81 -156.41c5.1,-5.29 7.96,-12.34 7.96,-19.67 0,-7.33 -2.86,-14.37 -7.96,-19.66 -135.69,-110 -306.76,-167.19 -481.51,-160.99 -304.5,0 -487.94,177.46 -487.94,390.59 0,286.57 260.9,348.36 473.1,398.61 145.43,34.44 267.98,63.46 267.98,155.71 0,73.17 -73.37,142.69 -223.79,142.69 -142.82,0.44 -280.48,-53.18 -385.21,-150.02 -3.24,-1.97 -6.84,-3.26 -10.59,-3.83 -3.76,-0.56 -7.58,-0.36 -11.26,0.58 -3.67,0.93 -7.12,2.6 -10.14,4.88 -3.02,2.3 -5.56,5.16 -7.45,8.44l-114.65 160.08c-4.58,5.18 -7.11,11.85 -7.11,18.75 0,6.91 2.53,13.57 7.11,18.75zm2140.83 -252.58c1.25,-3.17 1.82,-6.56 1.69,-9.95l-0.92 -29.27c0,-311.93 -193.52,-525.06 -478.77,-525.06 -65.81,-1.14 -131.18,11.04 -192.16,35.81 -60.97,24.76 -116.26,61.61 -162.55,108.28 -46.3,46.68 -82.62,102.25 -106.78,163.32 -24.16,61.07 -35.64,126.41 -33.78,192.03 -2.65,67.25 8.8,134.29 33.64,196.87 24.85,62.56 62.53,119.26 110.63,166.46 48.09,47.2 105.55,83.85 168.69,107.6 63.13,23.76 130.54,34.09 197.91,30.34 134.87,3.39 267.07,-37.77 376.04,-117.09 4.95,-3.96 8.25,-9.61 9.27,-15.86 1.01,-6.26 -0.33,-12.65 -3.78,-17.98l-82.54 -119.84c-1.91,-2.94 -4.42,-5.43 -7.37,-7.33 -2.95,-1.88 -6.26,-3.13 -9.73,-3.65 -3.47,-0.52 -7.01,-0.29 -10.39,0.65 -3.38,0.94 -6.51,2.6 -9.2,4.85 -68.87,48.31 -150.61,75.06 -234.79,76.84 -64.15,5.28 -127.97,-13.57 -178.88,-52.83 -50.93,-39.28 -85.27,-96.13 -96.27,-159.38 -0.13,-1.08 -0.04,-2.18 0.27,-3.23 0.3,-1.05 0.8,-2.03 1.49,-2.88 0.68,-0.85 1.53,-1.56 2.48,-2.08 0.96,-0.52 2.02,-0.85 3.1,-0.96l678.71 0c3.42,0.13 6.81,-0.46 9.98,-1.69 3.17,-1.25 6.06,-3.13 8.47,-5.53 2.41,-2.4 4.3,-5.27 5.55,-8.44z"/>
  </g>
 </g>
</svg>
