<?xml version="1.0" encoding="UTF-8"?>
<!DOCTYPE svg PUBLIC "-//W3C//DTD SVG 1.1//EN" "http://www.w3.org/Graphics/SVG/1.1/DTD/svg11.dtd">
<!-- Creator: CorelDRAW -->
<svg xmlns="http://www.w3.org/2000/svg" xml:space="preserve" width="67.7334mm" height="67.7334mm" version="1.1" style="shape-rendering:geometricPrecision; text-rendering:geometricPrecision; image-rendering:optimizeQuality; fill-rule:evenodd; clip-rule:evenodd"
viewBox="0 0 640.15 640.15"
 xmlns:xlink="http://www.w3.org/1999/xlink"
 xmlns:xodm="http://www.corel.com/coreldraw/odm/2003">
 <defs>
  <style type="text/css">
   <![CDATA[
    .fil0 {fill:#F05138;fill-rule:nonzero}
    .fil1 {fill:white;fill-rule:nonzero}
   ]]>
  </style>
 </defs>
 <g id="圖層_x0020_1">
  <metadata id="CorelCorpID_0Corel-Layer"/>
  <g id="_105553246163968">
   <path class="fil0" d="M150.03 0l340.08 0c82.85,0 150.03,67.19 150.03,150.03l0 340.08c0,82.85 -67.19,150.03 -150.03,150.03l-340.08 0c-82.85,-0 -150.03,-67.19 -150.03,-150.04l-0 -340.08c0,-82.85 67.19,-150.03 150.04,-150.03z"/>
   <path class="fil1" d="M95 424.52l79.67 0 -24.69 74.54 -54.98 0 0 -74.54zm0 -141.72l126.59 0 -24.69 74.54 -101.9 0 0 -74.54zm0 -141.72l173.54 0 -24.69 74.54 -148.85 0 0 -74.54zm252.06 0l198.07 0 0 74.54 -222.76 0 24.69 -74.54zm-46.92 141.72l244.99 0 0 74.54 -269.68 0 24.69 -74.54zm-46.92 141.72l291.94 0 0 74.54 -316.63 0 24.69 -74.54z"/>
  </g>
 </g>
</svg>
